<?xml version="1.0" encoding="UTF-8"?>
<!DOCTYPE svg PUBLIC "-//W3C//DTD SVG 1.1//EN" "http://www.w3.org/Graphics/SVG/1.1/DTD/svg11.dtd">
<svg version="1.2" width="210mm" height="297mm" viewBox="0 0 21000 29700" preserveAspectRatio="xMidYMid" fill-rule="evenodd" stroke-width="28.222" stroke-linejoin="round" xmlns="http://www.w3.org/2000/svg" xmlns:ooo="http://xml.openoffice.org/svg/export" xmlns:xlink="http://www.w3.org/1999/xlink" xmlns:presentation="http://sun.com/xmlns/staroffice/presentation" xmlns:smil="http://www.w3.org/2001/SMIL20/" xmlns:anim="urn:oasis:names:tc:opendocument:xmlns:animation:1.0" xml:space="preserve">
 <defs class="ClipPathGroup">
  <clipPath id="presentation_clip_path" clipPathUnits="userSpaceOnUse">
   <rect x="0" y="0" width="21000" height="29700"/>
  </clipPath>
  <clipPath id="presentation_clip_path_shrink" clipPathUnits="userSpaceOnUse">
   <rect x="21" y="29" width="20958" height="29641"/>
  </clipPath>
 </defs>
 <defs class="TextShapeIndex">
  <g ooo:slide="id1" ooo:id-list="id3 id4 id5 id6 id7"/>
 </defs>
 <defs class="EmbeddedBulletChars">
  <g id="bullet-char-template-57356" transform="scale(0.00048828125,-0.00048828125)">
   <path d="M 580,1141 L 1163,571 580,0 -4,571 580,1141 Z"/>
  </g>
  <g id="bullet-char-template-57354" transform="scale(0.00048828125,-0.00048828125)">
   <path d="M 8,1128 L 1137,1128 1137,0 8,0 8,1128 Z"/>
  </g>
  <g id="bullet-char-template-10146" transform="scale(0.00048828125,-0.00048828125)">
   <path d="M 174,0 L 602,739 174,1481 1456,739 174,0 Z M 1358,739 L 309,1346 659,739 1358,739 Z"/>
  </g>
  <g id="bullet-char-template-10132" transform="scale(0.00048828125,-0.00048828125)">
   <path d="M 2015,739 L 1276,0 717,0 1260,543 174,543 174,936 1260,936 717,1481 1274,1481 2015,739 Z"/>
  </g>
  <g id="bullet-char-template-10007" transform="scale(0.00048828125,-0.00048828125)">
   <path d="M 0,-2 C -7,14 -16,27 -25,37 L 356,567 C 262,823 215,952 215,954 215,979 228,992 255,992 264,992 276,990 289,987 310,991 331,999 354,1012 L 381,999 492,748 772,1049 836,1024 860,1049 C 881,1039 901,1025 922,1006 886,937 835,863 770,784 769,783 710,716 594,584 L 774,223 C 774,196 753,168 711,139 L 727,119 C 717,90 699,76 672,76 641,76 570,178 457,381 L 164,-76 C 142,-110 111,-127 72,-127 30,-127 9,-110 8,-76 1,-67 -2,-52 -2,-32 -2,-23 -1,-13 0,-2 Z"/>
  </g>
  <g id="bullet-char-template-10004" transform="scale(0.00048828125,-0.00048828125)">
   <path d="M 285,-33 C 182,-33 111,30 74,156 52,228 41,333 41,471 41,549 55,616 82,672 116,743 169,778 240,778 293,778 328,747 346,684 L 369,508 C 377,444 397,411 428,410 L 1163,1116 C 1174,1127 1196,1133 1229,1133 1271,1133 1292,1118 1292,1087 L 1292,965 C 1292,929 1282,901 1262,881 L 442,47 C 390,-6 338,-33 285,-33 Z"/>
  </g>
  <g id="bullet-char-template-9679" transform="scale(0.00048828125,-0.00048828125)">
   <path d="M 813,0 C 632,0 489,54 383,161 276,268 223,411 223,592 223,773 276,916 383,1023 489,1130 632,1184 813,1184 992,1184 1136,1130 1245,1023 1353,916 1407,772 1407,592 1407,412 1353,268 1245,161 1136,54 992,0 813,0 Z"/>
  </g>
  <g id="bullet-char-template-8226" transform="scale(0.00048828125,-0.00048828125)">
   <path d="M 346,457 C 273,457 209,483 155,535 101,586 74,649 74,723 74,796 101,859 155,911 209,963 273,989 346,989 419,989 480,963 531,910 582,859 608,796 608,723 608,648 583,586 532,535 482,483 420,457 346,457 Z"/>
  </g>
  <g id="bullet-char-template-8211" transform="scale(0.00048828125,-0.00048828125)">
   <path d="M -4,459 L 1135,459 1135,606 -4,606 -4,459 Z"/>
  </g>
  <g id="bullet-char-template-61548" transform="scale(0.00048828125,-0.00048828125)">
   <path d="M 173,740 C 173,903 231,1043 346,1159 462,1274 601,1332 765,1332 928,1332 1067,1274 1183,1159 1299,1043 1357,903 1357,740 1357,577 1299,437 1183,322 1067,206 928,148 765,148 601,148 462,206 346,322 231,437 173,577 173,740 Z"/>
  </g>
 </defs>
 <defs class="TextEmbeddedBitmaps"/>
 <g>
  <g id="id2" class="Master_Slide">
   <g id="bg-id2" class="Background"/>
   <g id="bo-id2" class="BackgroundObjects"/>
  </g>
 </g>
 <g class="SlideGroup">
  <g>
   <g id="container-id1">
    <g id="id1" class="Slide" clip-path="url(#presentation_clip_path)">
     <g class="Page">
      <g class="com.sun.star.drawing.CustomShape">
       <g id="id3">
        <rect class="BoundingBox" stroke="none" fill="none" x="2999" y="11599" width="15014" height="13904"/>
        <path fill="rgb(51,51,51)" stroke="none" d="M 5316,11600 C 4158,11600 3000,12758 3000,13916 L 3000,23184 C 3000,24342 4158,25501 5316,25501 L 15694,25501 C 16852,25501 18011,24342 18011,23184 L 18011,13916 C 18011,12758 16852,11600 15694,11600 L 5316,11600 Z M 3000,11600 L 3000,11600 Z M 18011,25501 L 18011,25501 Z"/>
        <path fill="none" stroke="rgb(51,51,51)" d="M 5316,11600 C 4158,11600 3000,12758 3000,13916 L 3000,23184 C 3000,24342 4158,25501 5316,25501 L 15694,25501 C 16852,25501 18011,24342 18011,23184 L 18011,13916 C 18011,12758 16852,11600 15694,11600 L 5316,11600 Z"/>
        <path fill="none" stroke="rgb(51,51,51)" d="M 3000,11600 L 3000,11600 Z"/>
        <path fill="none" stroke="rgb(51,51,51)" d="M 18011,25501 L 18011,25501 Z"/>
       </g>
      </g>
      <g class="com.sun.star.drawing.CustomShape">
       <g id="id4">
        <rect class="BoundingBox" stroke="none" fill="none" x="13791" y="14391" width="4520" height="2520"/>
        <path fill="rgb(0,109,111)" stroke="none" d="M 14216,14400 C 14008,14400 13800,14608 13800,14816 L 13800,16484 C 13800,16692 14008,16901 14216,16901 L 17884,16901 C 18092,16901 18301,16692 18301,16484 L 18301,14816 C 18301,14608 18092,14400 17884,14400 L 14216,14400 Z M 13800,14400 L 13800,14400 Z M 18301,16901 L 18301,16901 Z"/>
        <path fill="none" stroke="rgb(0,109,111)" stroke-width="18" stroke-linejoin="round" d="M 14216,14400 C 14008,14400 13800,14608 13800,14816 L 13800,16484 C 13800,16692 14008,16901 14216,16901 L 17884,16901 C 18092,16901 18301,16692 18301,16484 L 18301,14816 C 18301,14608 18092,14400 17884,14400 L 14216,14400 Z"/>
       </g>
      </g>
      <g class="com.sun.star.drawing.CustomShape">
       <g id="id5">
        <rect class="BoundingBox" stroke="none" fill="none" x="13799" y="17299" width="4504" height="2504"/>
        <path fill="rgb(0,109,111)" stroke="none" d="M 14216,17300 C 14008,17300 13800,17508 13800,17716 L 13800,19384 C 13800,19592 14008,19801 14216,19801 L 17884,19801 C 18092,19801 18301,19592 18301,19384 L 18301,17716 C 18301,17508 18092,17300 17884,17300 L 14216,17300 Z M 13800,17300 L 13800,17300 Z M 18301,19801 L 18301,19801 Z"/>
        <path fill="none" stroke="rgb(0,109,111)" d="M 14216,17300 C 14008,17300 13800,17508 13800,17716 L 13800,19384 C 13800,19592 14008,19801 14216,19801 L 17884,19801 C 18092,19801 18301,19592 18301,19384 L 18301,17716 C 18301,17508 18092,17300 17884,17300 L 14216,17300 Z"/>
        <path fill="none" stroke="rgb(0,109,111)" d="M 13800,17300 L 13800,17300 Z"/>
        <path fill="none" stroke="rgb(0,109,111)" d="M 18301,19801 L 18301,19801 Z"/>
       </g>
      </g>
      <g class="com.sun.star.drawing.CustomShape">
       <g id="id6">
        <rect class="BoundingBox" stroke="none" fill="none" x="13799" y="20199" width="4504" height="2504"/>
        <path fill="rgb(0,109,111)" stroke="none" d="M 14216,20200 C 14008,20200 13800,20408 13800,20616 L 13800,22284 C 13800,22492 14008,22701 14216,22701 L 17884,22701 C 18092,22701 18301,22492 18301,22284 L 18301,20616 C 18301,20408 18092,20200 17884,20200 L 14216,20200 Z M 13800,20200 L 13800,20200 Z M 18301,22701 L 18301,22701 Z"/>
        <path fill="none" stroke="rgb(0,109,111)" d="M 14216,20200 C 14008,20200 13800,20408 13800,20616 L 13800,22284 C 13800,22492 14008,22701 14216,22701 L 17884,22701 C 18092,22701 18301,22492 18301,22284 L 18301,20616 C 18301,20408 18092,20200 17884,20200 L 14216,20200 Z"/>
        <path fill="none" stroke="rgb(0,109,111)" d="M 13800,20200 L 13800,20200 Z"/>
        <path fill="none" stroke="rgb(0,109,111)" d="M 18301,22701 L 18301,22701 Z"/>
       </g>
      </g>
      <g class="com.sun.star.drawing.EllipseShape">
       <g id="id7">
        <rect class="BoundingBox" stroke="none" fill="none" x="4882" y="2482" width="11237" height="9358"/>
        <path fill="none" stroke="rgb(51,51,51)" stroke-width="1235" stroke-linejoin="round" d="M 5605,11212 C 5531,10736 5500,10325 5500,9840 5500,8599 5710,7544 6170,6470 6630,5395 7203,4623 8000,4003 8797,3383 9580,3100 10500,3100 11420,3100 12203,3383 13000,4003 13797,4623 14370,5395 14830,6470 15290,7544 15500,8599 15500,9839 15500,10329 15468,10742 15394,11221"/>
       </g>
      </g>
     </g>
    </g>
   </g>
  </g>
 </g>
</svg>